<svg width="179" height="20" viewBox="0 0 179 20" fill="none" xmlns="http://www.w3.org/2000/svg">
<path d="M0.48291 19.0232H178.41" stroke="black"/>
<g clip-path="url(#clip0_3_162)">
<path d="M176.771 12.7518L173.439 9.28631C174.296 8.26788 174.765 6.98648 174.765 5.65249C174.765 2.53576 172.229 0 169.113 0C165.996 0 163.46 2.53576 163.46 5.65249C163.46 8.76923 165.996 11.305 169.113 11.305C170.283 11.305 171.398 10.9521 172.351 10.2821L175.708 13.7739C175.849 13.9196 176.037 14 176.24 14C176.431 14 176.613 13.927 176.751 13.7943C177.044 13.5124 177.053 13.045 176.771 12.7518ZM169.113 1.47456C171.416 1.47456 173.291 3.34873 173.291 5.65249C173.291 7.95625 171.416 9.83043 169.113 9.83043C166.809 9.83043 164.935 7.95625 164.935 5.65249C164.935 3.34873 166.809 1.47456 169.113 1.47456Z" fill="black"/>
</g>
<defs>
<clipPath id="clip0_3_162">
<rect width="14" height="14" fill="white" transform="translate(163.218)"/>
</clipPath>
</defs>
</svg>
